<svg width="259" height="257" viewBox="0 0 259 257" fill="none" xmlns="http://www.w3.org/2000/svg">
<path d="M255.554 151.72C258.419 153.867 259.493 156.73 258.777 160.308C256.151 171.282 252.212 181.54 246.959 191.082C246.243 192.752 245.169 193.945 243.736 194.66C242.304 195.376 240.514 195.495 238.365 195.018C233.113 194.064 227.98 194.302 222.966 195.734C217.953 197.165 213.297 200.028 209 204.322C204.703 208.616 201.957 213.387 200.764 218.635C199.57 223.883 199.331 229.37 200.047 235.095C200.764 238.912 199.57 241.775 196.466 243.683C186.678 249.408 176.89 253.583 167.101 256.207C163.282 257.4 160.178 256.207 157.791 252.629C154.926 247.858 151.106 244.041 146.331 241.178C141.556 238.316 136.065 236.884 129.858 236.884C123.651 236.884 118.279 238.316 113.743 241.178C109.207 244.041 105.149 247.858 101.568 252.629C99.4189 256.207 96.4347 257.4 92.6149 256.207C82.1104 253.345 72.3221 249.17 63.25 243.683C59.6689 241.775 58.3559 238.912 59.3108 235.095C60.5045 229.608 60.3851 224.122 58.9527 218.635C57.5203 213.148 54.7748 208.377 50.7162 204.322C46.6577 200.266 42.0022 197.404 36.75 195.734C31.4977 194.064 26.2455 193.825 20.9932 195.018C17.1734 195.972 14.3086 194.66 12.3986 191.082C7.14639 181.063 3.32657 170.805 0.939182 160.308C-0.254512 156.73 0.819813 153.867 4.16215 151.72C8.22071 148.619 11.5631 144.683 14.1892 139.912C16.8153 135.141 18.0687 130.131 17.9493 124.883C17.8299 119.635 16.6959 114.864 14.5473 110.57C12.3986 106.276 9.41441 102.578 5.59459 99.4771C2.72972 96.853 1.77477 93.9904 2.72972 90.8892C6.3108 79.4386 11.0856 68.8229 17.054 59.0422C18.7252 56.1795 21.1126 54.9868 24.2162 55.4639C28.991 55.941 33.7658 55.3446 38.5405 53.6747C43.3153 52.0048 47.3739 49.3807 50.7162 45.8024C57.6396 38.8843 60.8626 30.6542 60.3851 21.1121C60.1464 18.0108 61.4595 15.6253 64.3243 13.9554C74.8288 7.75302 86.0495 3.22049 97.9865 0.357836C101.09 -0.357827 103.597 0.357836 105.507 2.50482C108.61 5.84458 112.311 8.46868 116.608 10.3771C120.905 12.2855 125.322 13.2398 129.858 13.2398C134.394 13.2398 138.811 12.2855 143.108 10.3771C147.405 8.46868 150.986 5.84458 153.851 2.50482C156 0.357836 158.626 -0.357827 161.73 0.357836C173.667 3.22049 184.887 7.75302 195.392 13.9554C198.018 15.3868 199.331 17.7723 199.331 21.1121C198.854 30.6542 202.077 38.8843 209 45.8024C212.581 49.3807 216.64 52.0048 221.176 53.6747C225.712 55.3446 230.367 55.941 235.142 55.4639C238.245 54.9868 240.752 56.1795 242.662 59.0422C248.631 68.8229 253.405 79.4386 256.986 90.8892C257.703 94.2289 256.748 97.0916 254.122 99.4771C250.302 102.578 247.318 106.276 245.169 110.57C243.02 114.864 241.946 119.695 241.946 125.062C241.946 130.43 243.259 135.38 245.885 139.912C248.511 144.445 251.734 148.381 255.554 151.72ZM129.858 178.916C136.782 178.916 143.347 177.604 149.554 174.98C155.761 172.355 161.014 168.777 165.311 164.245C169.608 159.712 173.07 154.464 175.696 148.5C178.322 142.536 179.635 136.095 179.635 129.177C179.635 122.259 178.322 115.699 175.696 109.496C173.07 103.294 169.608 98.0458 165.311 93.7518C161.014 89.4578 155.761 85.9988 149.554 83.3747C143.347 80.7506 136.782 79.4386 129.858 79.4386C122.935 79.4386 116.489 80.7506 110.52 83.3747C104.552 85.9988 99.2995 89.4578 94.7635 93.7518C90.2275 98.0458 86.6464 103.294 84.0203 109.496C81.3941 115.699 80.0811 122.259 80.0811 129.177C80.0811 136.095 81.3941 142.536 84.0203 148.5C86.6464 154.464 90.2275 159.712 94.7635 164.245C99.2995 168.777 104.552 172.355 110.52 174.98C116.489 177.604 122.935 178.916 129.858 178.916Z" fill="url(#paint0_linear_6_36)"/>
<circle cx="130" cy="128" r="90" fill="url(#paint1_linear_6_36)"/>
<rect x="100.577" y="99.9372" width="19" height="39" rx="9.5" transform="rotate(45 100.577 99.9372)" fill="#B63FFF"/>
<rect x="114.012" y="141.656" width="19" height="39" rx="9.5" transform="rotate(135 114.012 141.656)" fill="#B63FFF"/>
<rect x="134.739" y="152.439" width="19" height="47.8977" rx="9.5" transform="rotate(-170.5 134.739 152.439)" fill="#B63FFF"/>
<rect x="156.577" y="155.217" width="19" height="39" rx="9.5" transform="rotate(-135 156.577 155.217)" fill="#B63FFF"/>
<rect x="143.142" y="113.498" width="19" height="39" rx="9.5" transform="rotate(-45 143.142 113.498)" fill="#B63FFF"/>
<defs>
<linearGradient id="paint0_linear_6_36" x1="129.73" y1="0.0894617" x2="130" y2="242" gradientUnits="userSpaceOnUse">
<stop stop-color="#FF44B4"/>
<stop offset="1" stop-color="#B63FFF"/>
</linearGradient>
<linearGradient id="paint1_linear_6_36" x1="130" y1="218" x2="130" y2="-33.5" gradientUnits="userSpaceOnUse">
<stop stop-color="#FF96C8"/>
<stop offset="1" stop-color="white"/>
</linearGradient>
</defs>
</svg>
